# xmcd
#
# Track frame offsets:
#	150
#	14850
#	32190
#	52251
#	66426
#	85937
#	106281
#	125204
#	142121
#	156142
#	171067
#	187663
#	205451
#
# Disc length: 3035 seconds
# Revision: 0
# Processed by: cddbd v1.5.2PL0 Copyright (c) Steve Scherf et al.
# Submitted via: dBpowerAMP V12.0
#
DISCID=c60bd90d
DTITLE=Terry Gillespie - BlueSoul
DYEAR=2013
DGENRE=Blues
TTITLE0=The Devil Likes To Win
TTITLE1=What Would Bo Diddley Do
TTITLE2=Early In The Mornin'
TTITLE3=My Tripitina
TTITLE4=You're Gonna Make Me Cry
TTITLE5=Let's Get Together
TTITLE6=My Mama
TTITLE7=It Wasn't Me
TTITLE8=Her Mind Left First
TTITLE9=16 Days
TTITLE10=She Walks Right In
TTITLE11=Magnolia Tree
TTITLE12=The Devil Likes to Win [reprise]
EXTD=
EXTT0=
EXTT1=
EXTT2=
EXTT3=
EXTT4=
EXTT5=
EXTT6=
EXTT7=
EXTT8=
EXTT9=
EXTT10=
EXTT11=
EXTT12=
PLAYORDER=
